<svg width="100%" height="100%" id="svg" viewBox="0 0 1440 590" xmlns="http://www.w3.org/2000/svg" class="transition duration-300 ease-in-out delay-150"><path d="M 0,600 C 0,600 0,200 0,200 C 127.91387559808612,157.0622009569378 255.82775119617224,114.1244019138756 337,130 C 418.17224880382776,145.8755980861244 452.6028708133971,220.56459330143542 528,219 C 603.3971291866029,217.43540669856458 719.7607655502394,139.6172248803828 845,135 C 970.2392344497606,130.3827751196172 1104.3540669856459,198.9665071770335 1205,222 C 1305.6459330143541,245.0334928229665 1372.8229665071772,222.51674641148327 1440,200 C 1440,200 1440,600 1440,600 Z" stroke="none" stroke-width="0" fill="#000" fill-opacity="0.53" class="transition-all duration-300 ease-in-out delay-150 path-0" transform="rotate(-180 720 300)"></path><path d="M 0,600 C 0,600 0,400 0,400 C 82.00956937799043,389.8373205741627 164.01913875598086,379.67464114832535 251,399 C 337.98086124401914,418.32535885167465 429.9330143540669,467.1387559808612 532,455 C 634.0669856459331,442.8612440191388 746.2488038277512,369.77033492822966 859,365 C 971.7511961722488,360.22966507177034 1085.0717703349283,423.77990430622015 1182,441 C 1278.9282296650717,458.22009569377985 1359.4641148325359,429.1100478468899 1440,400 C 1440,400 1440,600 1440,600 Z" stroke="none" stroke-width="0" fill="#000" fill-opacity="1" class="transition-all duration-300 ease-in-out delay-150 path-1" transform="rotate(-180 720 300)"></path></svg>